<?xml version="1.0" standalone="no"?>
<!DOCTYPE svg PUBLIC "-//W3C//DTD SVG 20010904//EN"
 "http://www.w3.org/TR/2001/REC-SVG-20010904/DTD/svg10.dtd">
<svg version="1.0" xmlns="http://www.w3.org/2000/svg"
 width="700.000000pt" height="700.000000pt" viewBox="0 0 700.000000 700.000000"
 preserveAspectRatio="xMidYMid meet">
<metadata>
Created by potrace 1.11, written by Peter Selinger 2001-2013
</metadata>
<g transform="translate(0.000000,700.000000) scale(0.100000,-0.100000)"
fill="#000000" stroke="none">
<path d="M2392 2808 c3 -7 17 -50 32 -95 62 -186 227 -475 373 -655 136 -165
331 -353 498 -480 98 -74 241 -168 254 -168 8 0 43 23 79 52 36 28 82 61 103
72 46 27 339 329 441 456 167 208 308 453 392 680 44 120 53 155 37 146 -6 -4
-11 -14 -11 -21 0 -30 -118 -319 -120 -294 0 3 12 34 26 69 35 88 63 180 55
180 -5 0 -20 -36 -34 -81 -33 -99 -88 -232 -94 -226 -2 3 9 38 25 78 36 89 53
149 43 149 -4 0 -15 -25 -24 -57 -22 -70 -78 -205 -83 -200 -2 2 6 33 19 68
14 35 27 77 31 94 14 55 -5 18 -38 -77 -18 -51 -43 -111 -55 -133 -23 -42 -23
-39 15 65 13 36 23 74 23 85 0 11 -17 -27 -38 -85 -21 -58 -48 -123 -60 -145
-24 -43 -22 -34 14 60 25 68 40 123 30 113 -4 -4 -19 -42 -35 -85 -15 -43 -37
-96 -49 -118 -23 -41 -22 -38 10 54 35 99 19 88 -19 -14 -35 -91 -71 -169 -72
-154 0 3 11 32 24 65 26 66 42 123 30 111 -4 -4 -17 -36 -30 -72 -26 -75 -75
-187 -80 -182 -2 2 10 37 26 78 16 40 29 81 29 89 0 17 -4 10 -50 -103 -17
-43 -33 -76 -35 -74 -3 2 1 17 7 33 19 50 28 84 21 84 -4 0 -13 -19 -20 -42
-16 -52 -64 -160 -68 -155 -2 2 6 27 17 56 33 87 16 79 -20 -9 -34 -84 -53
-106 -27 -32 9 23 11 42 6 42 -6 0 -10 -7 -10 -16 0 -30 -20 -2 -21 29 0 18
-6 50 -13 72 l-12 40 -18 -47 c-10 -26 -15 -52 -10 -60 4 -7 -2 -4 -14 6 l-22
19 0 -40 c0 -35 4 -42 31 -56 l32 -15 -42 -7 -41 -7 20 -25 c26 -33 25 -41 -6
-74 -25 -27 -26 -27 -5 -34 12 -3 21 -9 21 -13 0 -17 -77 -93 -98 -97 -12 -2
-26 -6 -31 -9 -4 -3 -16 3 -26 14 -24 27 -32 25 -40 -7 l-7 -28 -18 23 c-31
38 -41 26 -22 -25 16 -44 21 -48 55 -53 l38 -5 -43 -41 c-76 -71 -136 -114
-151 -108 -16 6 -22 31 -33 132 -4 35 -11 62 -18 62 -17 0 -76 -39 -76 -50 0
-5 15 -27 33 -47 60 -70 64 -78 17 -45 -25 18 -63 48 -85 67 -40 35 -40 35
-13 35 l27 0 -14 41 -15 40 27 -3 c38 -4 40 18 2 37 -22 12 -34 14 -38 6 -4
-6 -18 18 -30 54 -24 68 -29 72 -63 54 -18 -10 -20 -9 -13 7 25 64 28 76 15
84 -7 4 -10 15 -6 25 4 12 0 18 -15 22 -16 4 -17 8 -7 14 9 6 9 9 1 9 -18 0
-45 -31 -39 -46 3 -8 -1 -14 -9 -14 -11 0 -15 -12 -15 -43 0 -52 20 -74 97
-110 36 -16 49 -27 42 -34 -6 -6 -12 -22 -13 -37 -3 -23 -1 -25 13 -14 10 8 9
5 -3 -10 -11 -12 -20 -22 -22 -22 -11 0 -104 125 -101 134 3 7 -4 18 -15 25
-18 11 -79 126 -91 173 -4 12 -9 20 -12 16 -3 -3 3 -29 14 -59 11 -29 19 -54
17 -57 -5 -4 -63 119 -72 152 -3 15 -11 29 -16 32 -12 8 -4 -23 23 -85 11 -24
17 -46 14 -49 -6 -6 -70 131 -80 171 -4 15 -12 30 -17 33 -13 8 -4 -21 32
-108 15 -38 26 -68 24 -68 -9 0 -74 140 -108 234 -3 10 -9 17 -11 14 -6 -6 27
-103 50 -147 9 -18 15 -35 12 -37 -6 -7 -81 152 -102 216 -10 30 -20 50 -22
45 -3 -11 22 -90 51 -157 9 -21 14 -38 10 -38 -8 0 -77 154 -99 218 -9 29 -19
51 -22 48 -7 -7 35 -131 64 -188 13 -27 21 -48 18 -48 -9 0 -82 154 -110 233
-15 43 -30 75 -32 73 -7 -7 36 -133 64 -189 13 -27 22 -51 20 -53 -7 -8 -92
174 -117 249 -12 38 -24 66 -27 63 -7 -6 33 -125 68 -203 16 -35 26 -63 23
-63 -9 0 -100 202 -124 275 -13 39 -25 65 -27 59 -5 -14 52 -174 83 -236 33
-65 30 -74 -4 -13 -33 60 -93 199 -118 275 -10 30 -20 48 -21 39 -4 -17 45
-156 77 -220 12 -22 19 -43 17 -46 -8 -8 -83 157 -118 259 -35 101 -36 104
-44 96 -7 -7 44 -152 90 -253 19 -44 29 -72 21 -62 -23 29 -123 257 -143 325
-10 34 -22 62 -27 62 -4 0 -6 -6 -4 -12z m1979 -435 c-12 -20 -14 -14 -5 12 4
9 9 14 11 11 3 -2 0 -13 -6 -23z m-610 -716 c-10 -9 -11 -8 -5 6 3 10 9 15 12
12 3 -3 0 -11 -7 -18z"/>
<path d="M3487 2425 c-21 -27 -27 -45 -27 -84 0 -28 -3 -51 -7 -51 -11 0 -73
39 -73 45 0 4 4 4 9 1 12 -8 41 38 41 63 0 44 -9 50 -48 37 -31 -11 -38 -19
-45 -51 -10 -51 -4 -65 29 -65 21 0 25 -3 19 -17 -4 -10 -14 -37 -22 -61 l-15
-42 -40 32 c-21 18 -53 41 -69 51 l-29 19 0 -84 c0 -87 -13 -93 -26 -10 -3 23
-10 45 -15 48 -17 10 -82 -126 -67 -142 9 -8 58 7 53 17 -3 4 8 4 24 -2 24 -8
37 -6 71 11 24 12 51 19 61 17 11 -3 19 0 19 7 0 6 42 31 93 55 50 23 87 45
81 47 -7 3 -7 32 2 97 6 50 11 93 10 94 -1 1 -14 -13 -29 -32z"/>
<path d="M3686 2384 c-9 -8 -16 -19 -16 -24 0 -5 -3 -15 -6 -24 -5 -12 0 -16
20 -16 20 0 29 -8 40 -35 8 -19 19 -35 23 -35 4 0 26 16 48 34 l40 34 -25 27
c-28 30 -71 55 -94 55 -8 0 -22 -7 -30 -16z"/>
<path d="M3625 2230 c-3 -5 8 -16 24 -25 36 -18 41 -19 41 -2 0 15 -58 39 -65
27z"/>
<path d="M3840 2195 l0 -50 -34 40 c-33 39 -33 39 -45 16 -7 -12 -20 -25 -30
-29 -17 -7 -16 -13 13 -89 17 -46 36 -83 42 -83 6 0 16 17 22 39 16 53 15 64
-5 56 -14 -5 -15 -4 -6 6 9 9 10 16 2 26 -9 10 -6 11 19 2 24 -8 37 -7 61 6
l31 16 -27 37 c-15 20 -31 41 -35 47 -4 5 -8 -13 -8 -40z"/>
<path d="M3440 1700 c8 -5 20 -10 25 -10 6 0 3 5 -5 10 -8 5 -19 10 -25 10 -5
0 -3 -5 5 -10z"/>
<path d="M3545 1637 c-4 -13 -5 -47 -3 -76 l3 -54 52 54 53 54 -43 22 c-53 28
-55 28 -62 0z"/>
</g>
</svg>
